<svg width="116" height="64" viewBox="0 0 116 64" fill="none" xmlns="http://www.w3.org/2000/svg">
<path d="M7.31818 46.0455V56H1.76136V32.7273H7.13636V41.75H7.32955C7.72349 40.6742 8.36742 39.8333 9.26136 39.2273C10.1629 38.6212 11.2652 38.3182 12.5682 38.3182C13.7955 38.3182 14.8636 38.5909 15.7727 39.1364C16.6818 39.6742 17.3864 40.4356 17.8864 41.4205C18.3939 42.4053 18.6439 43.5568 18.6364 44.875V56H13.0795V45.9659C13.0871 44.9962 12.8447 44.2386 12.3523 43.6932C11.8598 43.1477 11.1667 42.875 10.2727 42.875C9.68939 42.875 9.17424 43.0038 8.72727 43.2614C8.28788 43.5114 7.94318 43.8712 7.69318 44.3409C7.45076 44.8106 7.32576 45.3788 7.31818 46.0455ZM27.0256 56.2955C25.9119 56.2955 24.9233 56.1098 24.0597 55.7386C23.2036 55.3598 22.5256 54.7917 22.0256 54.0341C21.5331 53.2689 21.2869 52.3106 21.2869 51.1591C21.2869 50.1894 21.4574 49.3712 21.7983 48.7045C22.1392 48.0379 22.6089 47.4962 23.2074 47.0795C23.8059 46.6629 24.4953 46.3485 25.2756 46.1364C26.0559 45.9167 26.8892 45.7689 27.7756 45.6932C28.768 45.6023 29.5672 45.5076 30.1733 45.4091C30.7794 45.303 31.2188 45.1553 31.4915 44.9659C31.7718 44.7689 31.9119 44.4924 31.9119 44.1364V44.0795C31.9119 43.4962 31.7112 43.0455 31.3097 42.7273C30.9081 42.4091 30.3665 42.25 29.6847 42.25C28.9498 42.25 28.3589 42.4091 27.9119 42.7273C27.465 43.0455 27.1809 43.4848 27.0597 44.0455L21.9347 43.8636C22.0862 42.803 22.4763 41.8561 23.1051 41.0227C23.7415 40.1818 24.6127 39.5227 25.7188 39.0455C26.8324 38.5606 28.1695 38.3182 29.7301 38.3182C30.8438 38.3182 31.8703 38.4508 32.8097 38.7159C33.7491 38.9735 34.5672 39.3523 35.2642 39.8523C35.9612 40.3447 36.4991 40.9508 36.8778 41.6705C37.2642 42.3902 37.4574 43.2121 37.4574 44.1364V56H32.2301V53.5682H32.0938C31.7831 54.1591 31.3854 54.6591 30.9006 55.0682C30.4233 55.4773 29.8589 55.7841 29.2074 55.9886C28.5634 56.1932 27.8362 56.2955 27.0256 56.2955ZM28.7415 52.6591C29.34 52.6591 29.8778 52.5379 30.3551 52.2955C30.84 52.053 31.2263 51.7197 31.5142 51.2955C31.8021 50.8636 31.946 50.3636 31.946 49.7955V48.1364C31.7869 48.2197 31.5938 48.2955 31.3665 48.3636C31.1468 48.4318 30.9044 48.4962 30.6392 48.5568C30.3741 48.6174 30.1013 48.6705 29.821 48.7159C29.5407 48.7614 29.2718 48.803 29.0142 48.8409C28.4915 48.9242 28.0445 49.053 27.6733 49.2273C27.3097 49.4015 27.0294 49.6288 26.8324 49.9091C26.643 50.1818 26.5483 50.5076 26.5483 50.8864C26.5483 51.4621 26.7528 51.9015 27.1619 52.2045C27.5786 52.5076 28.1051 52.6591 28.7415 52.6591ZM40.8551 56V32.7273H46.4119V41.5341H46.5256C46.7528 41.0038 47.0748 40.4924 47.4915 40C47.9157 39.5076 48.4536 39.1061 49.1051 38.7955C49.7642 38.4773 50.5521 38.3182 51.4688 38.3182C52.6809 38.3182 53.8134 38.6364 54.8665 39.2727C55.9271 39.9091 56.7831 40.8902 57.4347 42.2159C58.0862 43.5417 58.4119 45.2311 58.4119 47.2841C58.4119 49.2614 58.0975 50.9167 57.4688 52.25C56.8475 53.5833 56.0066 54.5833 54.946 55.25C53.893 55.9167 52.7225 56.25 51.4347 56.25C50.5559 56.25 49.7945 56.1061 49.1506 55.8182C48.5066 55.5303 47.965 55.1515 47.5256 54.6818C47.0938 54.2121 46.7604 53.7083 46.5256 53.1705H46.3551V56H40.8551ZM46.2983 47.2727C46.2983 48.2121 46.4233 49.0303 46.6733 49.7273C46.9309 50.4242 47.2983 50.9659 47.7756 51.3523C48.2604 51.7311 48.84 51.9205 49.5142 51.9205C50.196 51.9205 50.7756 51.7311 51.2528 51.3523C51.7301 50.9659 52.09 50.4242 52.3324 49.7273C52.5824 49.0303 52.7074 48.2121 52.7074 47.2727C52.7074 46.3333 52.5824 45.5189 52.3324 44.8295C52.09 44.1402 51.7301 43.6061 51.2528 43.2273C50.7831 42.8485 50.2036 42.6591 49.5142 42.6591C48.8324 42.6591 48.2528 42.8447 47.7756 43.2159C47.2983 43.5871 46.9309 44.1174 46.6733 44.8068C46.4233 45.4962 46.2983 46.3182 46.2983 47.2727ZM61.3239 56V38.5455H66.8807V56H61.3239ZM64.108 36.5114C63.3277 36.5114 62.6572 36.2538 62.0966 35.7386C61.536 35.2159 61.2557 34.5871 61.2557 33.8523C61.2557 33.125 61.536 32.5038 62.0966 31.9886C62.6572 31.4659 63.3277 31.2045 64.108 31.2045C64.8958 31.2045 65.5663 31.4659 66.1193 31.9886C66.6799 32.5038 66.9602 33.125 66.9602 33.8523C66.9602 34.5871 66.6799 35.2159 66.1193 35.7386C65.5663 36.2538 64.8958 36.5114 64.108 36.5114ZM80.2699 38.5455V42.6364H69.2585V38.5455H80.2699ZM71.5653 34.3636H77.1222V50.5114C77.1222 50.8523 77.1752 51.1288 77.2812 51.3409C77.3949 51.5455 77.5578 51.6932 77.7699 51.7841C77.982 51.8674 78.2358 51.9091 78.5312 51.9091C78.7434 51.9091 78.9669 51.8902 79.2017 51.8523C79.4441 51.8068 79.6259 51.7689 79.7472 51.7386L80.5881 55.75C80.3229 55.8258 79.9479 55.9205 79.4631 56.0341C78.9858 56.1477 78.4138 56.2197 77.7472 56.25C76.4441 56.3106 75.3267 56.1591 74.3949 55.7955C73.4706 55.4242 72.7623 54.8485 72.2699 54.0682C71.785 53.2879 71.5502 52.3068 71.5653 51.125V34.3636ZM98.125 43.875L93.0227 44.0114C92.9697 43.6477 92.8258 43.3258 92.5909 43.0455C92.3561 42.7576 92.0492 42.5341 91.6705 42.375C91.2992 42.2083 90.8674 42.125 90.375 42.125C89.7311 42.125 89.1818 42.2538 88.7273 42.5114C88.2803 42.7689 88.0606 43.1174 88.0682 43.5568C88.0606 43.8977 88.197 44.1932 88.4773 44.4432C88.7652 44.6932 89.2765 44.8939 90.0114 45.0455L93.375 45.6818C95.1174 46.0152 96.4129 46.5682 97.2614 47.3409C98.1174 48.1136 98.5492 49.1364 98.5568 50.4091C98.5492 51.6061 98.1932 52.6477 97.4886 53.5341C96.7917 54.4205 95.8371 55.1098 94.625 55.6023C93.4129 56.0871 92.0265 56.3295 90.4659 56.3295C87.9735 56.3295 86.0076 55.8182 84.5682 54.7955C83.1364 53.7652 82.3182 52.3864 82.1136 50.6591L87.6023 50.5227C87.7235 51.1591 88.0379 51.6439 88.5455 51.9773C89.053 52.3106 89.7008 52.4773 90.4886 52.4773C91.2008 52.4773 91.7803 52.3447 92.2273 52.0795C92.6742 51.8144 92.9015 51.4621 92.9091 51.0227C92.9015 50.6288 92.7273 50.3144 92.3864 50.0795C92.0455 49.8371 91.5114 49.6477 90.7841 49.5114L87.7386 48.9318C85.9886 48.6136 84.6856 48.0265 83.8295 47.1705C82.9735 46.3068 82.5492 45.2083 82.5568 43.875C82.5492 42.7083 82.8598 41.7121 83.4886 40.8864C84.1174 40.053 85.0114 39.4167 86.1705 38.9773C87.3295 38.5379 88.697 38.3182 90.2727 38.3182C92.6364 38.3182 94.5 38.8144 95.8636 39.8068C97.2273 40.7917 97.9811 42.1477 98.125 43.875Z" fill="white"/>
<path d="M7.31818 46.0455L6.31818 46.0341V46.0455H7.31818ZM7.31818 56V57H8.31818V56H7.31818ZM1.76136 56H0.761364V57H1.76136V56ZM1.76136 32.7273V31.7273H0.761364V32.7273H1.76136ZM7.13636 32.7273H8.13636V31.7273H7.13636V32.7273ZM7.13636 41.75H6.13636V42.75H7.13636V41.75ZM7.32955 41.75V42.75H8.02829L8.26856 42.0939L7.32955 41.75ZM9.26136 39.2273L8.70345 38.3974L8.70021 38.3996L9.26136 39.2273ZM15.7727 39.1364L15.2582 39.9939L15.2635 39.997L15.7727 39.1364ZM17.8864 41.4205L16.9947 41.8732L16.9975 41.8786L17.8864 41.4205ZM18.6364 44.875L17.6364 44.8693V44.875H18.6364ZM18.6364 56V57H19.6364V56H18.6364ZM13.0795 56H12.0795V57H13.0795V56ZM13.0795 45.9659L12.0795 45.9581V45.9659H13.0795ZM12.3523 43.6932L11.61 44.3633L11.61 44.3633L12.3523 43.6932ZM8.72727 43.2614L9.2218 44.1305L9.22657 44.1278L8.72727 43.2614ZM7.69318 44.3409L6.81036 43.871L6.80456 43.8823L7.69318 44.3409ZM6.31818 46.0455V56H8.31818V46.0455H6.31818ZM7.31818 55H1.76136V57H7.31818V55ZM2.76136 56V32.7273H0.761364V56H2.76136ZM1.76136 33.7273H7.13636V31.7273H1.76136V33.7273ZM6.13636 32.7273V41.75H8.13636V32.7273H6.13636ZM7.13636 42.75H7.32955V40.75H7.13636V42.75ZM8.26856 42.0939C8.59504 41.2023 9.11301 40.536 9.82252 40.055L8.70021 38.3996C7.62184 39.1307 6.85193 40.1462 6.39053 41.4061L8.26856 42.0939ZM9.81928 40.0572C10.5253 39.5825 11.4236 39.3182 12.5682 39.3182V37.3182C11.1067 37.3182 9.80043 37.6599 8.70345 38.3974L9.81928 40.0572ZM12.5682 39.3182C13.6432 39.3182 14.5277 39.5555 15.2582 39.9939L16.2872 38.2789C15.1996 37.6263 13.9477 37.3182 12.5682 37.3182V39.3182ZM15.2635 39.997C16.0012 40.4335 16.5767 41.0497 16.9947 41.8731L18.778 40.9678C18.1961 39.8215 17.3624 38.915 16.2819 38.2757L15.2635 39.997ZM16.9975 41.8786C17.4183 42.6952 17.6432 43.6819 17.6364 44.8693L19.6363 44.8807C19.6447 43.4317 19.3695 42.1154 18.7753 40.9623L16.9975 41.8786ZM17.6364 44.875V56H19.6364V44.875H17.6364ZM18.6364 55H13.0795V57H18.6364V55ZM14.0795 56V45.9659H12.0795V56H14.0795ZM14.0795 45.9737C14.0884 44.8356 13.8025 43.8072 13.0945 43.0231L11.61 44.3633C11.8869 44.67 12.0858 45.1568 12.0796 45.9581L14.0795 45.9737ZM13.0945 43.0231C12.3722 42.2229 11.3832 41.875 10.2727 41.875V43.875C10.9501 43.875 11.3475 44.0725 11.61 44.3633L13.0945 43.0231ZM10.2727 41.875C9.53748 41.875 8.84583 42.0389 8.22798 42.3949L9.22657 44.1278C9.50266 43.9687 9.8413 43.875 10.2727 43.875V41.875ZM8.23275 42.3922C7.61991 42.7409 7.14452 43.2434 6.81044 43.8711L8.57593 44.8108C8.74185 44.499 8.95585 44.2818 9.2218 44.1305L8.23275 42.3922ZM6.80456 43.8823C6.47451 44.5217 6.32714 45.2514 6.31825 46.0341L8.31812 46.0568C8.32437 45.5062 8.42701 45.0995 8.5818 44.7996L6.80456 43.8823ZM24.0597 55.7386L23.655 56.6532L23.6648 56.6574L24.0597 55.7386ZM22.0256 54.0341L21.1846 54.5753L21.191 54.5849L22.0256 54.0341ZM21.7983 48.7045L20.908 48.2493L20.908 48.2493L21.7983 48.7045ZM23.2074 47.0795L23.7788 47.9002L23.7788 47.9002L23.2074 47.0795ZM25.2756 46.1364L25.5379 47.1014L25.5466 47.0989L25.2756 46.1364ZM27.7756 45.6932L27.8607 46.6896L27.8668 46.689L27.7756 45.6932ZM30.1733 45.4091L30.3337 46.3962L30.3457 46.3941L30.1733 45.4091ZM31.4915 44.9659L32.0619 45.7873L32.0664 45.7841L31.4915 44.9659ZM31.3097 42.7273L31.9307 41.9435L31.9307 41.9435L31.3097 42.7273ZM27.9119 42.7273L27.332 41.9126L27.332 41.9126L27.9119 42.7273ZM27.0597 44.0455L27.0242 45.0448L27.8603 45.0745L28.0371 44.2568L27.0597 44.0455ZM21.9347 43.8636L20.9447 43.7222L20.7874 44.8236L21.8992 44.863L21.9347 43.8636ZM23.1051 41.0227L22.3077 40.4193L22.3069 40.4204L23.1051 41.0227ZM25.7188 39.0455L26.1149 39.9636L26.1179 39.9623L25.7188 39.0455ZM32.8097 38.7159L32.538 39.6783L32.5452 39.6803L32.8097 38.7159ZM35.2642 39.8523L34.6813 40.6648L34.6872 40.669L35.2642 39.8523ZM36.8778 41.6705L35.9929 42.1362L35.9968 42.1434L36.8778 41.6705ZM37.4574 56V57H38.4574V56H37.4574ZM32.2301 56H31.2301V57H32.2301V56ZM32.2301 53.5682H33.2301V52.5682H32.2301V53.5682ZM32.0938 53.5682V52.5682H31.4897L31.2086 53.1029L32.0938 53.5682ZM30.9006 55.0682L30.2557 54.3039L30.2498 54.3089L30.9006 55.0682ZM29.2074 55.9886L28.9078 55.0345L28.9046 55.0356L29.2074 55.9886ZM30.3551 52.2955L29.9079 51.401L29.9022 51.4039L30.3551 52.2955ZM31.5142 51.2955L32.3417 51.857L32.3463 51.8502L31.5142 51.2955ZM31.946 48.1364H32.946V46.4837L31.482 47.2505L31.946 48.1364ZM31.3665 48.3636L31.0791 47.4058L31.0701 47.4086L31.3665 48.3636ZM29.821 48.7159L29.9811 49.703L29.9811 49.703L29.821 48.7159ZM29.0142 48.8409L28.8687 47.8515L28.8568 47.8534L29.0142 48.8409ZM27.6733 49.2273L27.2484 48.322L27.2412 48.3255L27.6733 49.2273ZM26.8324 49.9091L26.0142 49.3341L26.011 49.3387L26.8324 49.9091ZM27.1619 52.2045L26.5667 53.0081L26.5738 53.0133L27.1619 52.2045ZM27.0256 55.2955C26.023 55.2955 25.1726 55.1285 24.4546 54.8199L23.6648 56.6574C24.674 57.0912 25.8008 57.2955 27.0256 57.2955V55.2955ZM24.4643 54.8242C23.7776 54.5203 23.2512 54.0757 22.8602 53.4832L21.191 54.5849C21.7999 55.5076 22.6296 56.1994 23.655 56.6531L24.4643 54.8242ZM22.8665 53.4929C22.5023 52.927 22.2869 52.1693 22.2869 51.1591H20.2869C20.2869 52.4519 20.564 53.6108 21.1847 54.5753L22.8665 53.4929ZM22.2869 51.1591C22.2869 50.3025 22.4379 49.6502 22.6886 49.1598L20.908 48.2493C20.4769 49.0922 20.2869 50.0763 20.2869 51.1591H22.2869ZM22.6886 49.1598C22.9569 48.6352 23.3187 48.2205 23.7788 47.9002L22.636 46.2589C21.8991 46.7719 21.3215 47.4405 20.908 48.2493L22.6886 49.1598ZM23.7788 47.9002C24.2736 47.5557 24.8561 47.2867 25.5379 47.1013L25.0132 45.1714C24.1344 45.4103 23.3382 45.77 22.636 46.2589L23.7788 47.9002ZM25.5466 47.0989C26.2606 46.8979 27.0312 46.7604 27.8607 46.6895L27.6904 44.6968C26.7472 44.7774 25.8512 44.9354 25.0046 45.1738L25.5466 47.0989ZM27.8668 46.689C28.8701 46.5971 29.6951 46.4999 30.3337 46.3961L30.0129 44.422C29.4394 44.5152 28.6659 44.6074 27.6843 44.6974L27.8668 46.689ZM30.3457 46.3941C30.9931 46.2808 31.6072 46.103 32.0619 45.7873L30.9211 44.1445C30.8303 44.2076 30.5656 44.3252 30.0009 44.4241L30.3457 46.3941ZM32.0664 45.7841C32.6254 45.3913 32.9119 44.8029 32.9119 44.1364H30.9119C30.9119 44.1597 30.9096 44.1707 30.9093 44.1722C30.9092 44.173 30.9094 44.1718 30.9103 44.1691C30.9113 44.1664 30.9127 44.1628 30.9148 44.1587C30.917 44.1545 30.9193 44.1506 30.9218 44.147C30.9242 44.1434 30.9263 44.1408 30.9277 44.1393C30.9306 44.136 30.9284 44.1394 30.9165 44.1477L32.0664 45.7841ZM32.9119 44.1364V44.0795H30.9119V44.1364H32.9119ZM32.9119 44.0795C32.9119 43.2387 32.6068 42.4793 31.9307 41.9435L30.6886 43.511C30.8155 43.6116 30.9119 43.7537 30.9119 44.0795H32.9119ZM31.9307 41.9435C31.3017 41.4451 30.5173 41.25 29.6847 41.25V43.25C30.2156 43.25 30.5145 43.3731 30.6886 43.511L31.9307 41.9435ZM29.6847 41.25C28.8115 41.25 27.9973 41.439 27.332 41.9126L28.4919 43.5419C28.7205 43.3792 29.0882 43.25 29.6847 43.25V41.25ZM27.332 41.9126C26.6721 42.3824 26.2535 43.042 26.0822 43.8341L28.0371 44.2568C28.1082 43.9277 28.2579 43.7085 28.4919 43.5419L27.332 41.9126ZM27.0951 43.0461L21.9701 42.8643L21.8992 44.863L27.0242 45.0448L27.0951 43.0461ZM22.9246 44.0051C23.0529 43.1072 23.3792 42.3198 23.9034 41.625L22.3069 40.4204C21.5735 41.3923 21.1195 42.4988 20.9447 43.7222L22.9246 44.0051ZM23.9025 41.6262C24.4205 40.9417 25.1447 40.3823 26.1149 39.9636L25.3226 38.1273C24.0807 38.6631 23.0625 39.4219 22.3077 40.4193L23.9025 41.6262ZM26.1179 39.9623C27.0752 39.5455 28.2693 39.3182 29.7301 39.3182V37.3182C28.0697 37.3182 26.5895 37.5757 25.3196 38.1286L26.1179 39.9623ZM29.7301 39.3182C30.7646 39.3182 31.6984 39.4413 32.538 39.6783L33.0813 37.7535C32.0421 37.4602 30.9229 37.3182 29.7301 37.3182V39.3182ZM32.5452 39.6803C33.3856 39.9107 34.0928 40.2426 34.6813 40.6648L35.8471 39.0397C35.0417 38.4619 34.1125 38.0362 33.0741 37.7515L32.5452 39.6803ZM34.6872 40.669C35.2618 41.075 35.6913 41.5631 35.9929 42.1362L37.7628 41.2047C37.3068 40.3384 36.6605 39.6144 35.8412 39.0356L34.6872 40.669ZM35.9968 42.1434C36.2953 42.6995 36.4574 43.3552 36.4574 44.1364H38.4574C38.4574 43.069 38.2331 42.0808 37.7589 41.1975L35.9968 42.1434ZM36.4574 44.1364V56H38.4574V44.1364H36.4574ZM37.4574 55H32.2301V57H37.4574V55ZM33.2301 56V53.5682H31.2301V56H33.2301ZM32.2301 52.5682H32.0938V54.5682H32.2301V52.5682ZM31.2086 53.1029C30.9548 53.5856 30.6368 53.9823 30.2557 54.3039L31.5454 55.8325C32.134 55.3358 32.6114 54.7325 32.9789 54.0335L31.2086 53.1029ZM30.2498 54.3089C29.8838 54.6226 29.4415 54.867 28.9078 55.0346L29.5069 56.9427C30.2763 56.7012 30.9628 56.3319 31.5514 55.8274L30.2498 54.3089ZM28.9046 55.0356C28.3759 55.2035 27.7533 55.2955 27.0256 55.2955V57.2955C27.919 57.2955 28.751 57.1828 29.5101 56.9417L28.9046 55.0356ZM28.7415 53.6591C29.4785 53.6591 30.1745 53.5088 30.808 53.187L29.9022 51.4039C29.5811 51.567 29.2014 51.6591 28.7415 51.6591V53.6591ZM30.8023 53.1899C31.4313 52.8754 31.9521 52.4311 32.3417 51.857L30.6867 50.734C30.5006 51.0083 30.2487 51.2306 29.9079 51.401L30.8023 53.1899ZM32.3463 51.8502C32.754 51.2385 32.946 50.5415 32.946 49.7955H30.946C30.946 50.1857 30.8502 50.4887 30.6822 50.7408L32.3463 51.8502ZM32.946 49.7955V48.1364H30.946V49.7955H32.946ZM31.482 47.2505C31.394 47.2966 31.2635 47.3505 31.0791 47.4058L31.6538 49.3215C31.924 49.2404 32.1798 49.1428 32.41 49.0222L31.482 47.2505ZM31.0701 47.4086C30.8785 47.468 30.6611 47.526 30.4164 47.582L30.862 49.5317C31.1476 49.4664 31.415 49.3956 31.6629 49.3187L31.0701 47.4086ZM30.4164 47.582C30.1729 47.6376 29.9211 47.6866 29.661 47.7288L29.9811 49.703C30.2815 49.6543 30.5752 49.5972 30.862 49.5317L30.4164 47.582ZM29.661 47.7288C29.3851 47.7735 29.121 47.8144 28.8687 47.8516L29.1597 49.8303C29.4226 49.7916 29.6964 49.7492 29.9811 49.703L29.661 47.7288ZM28.8568 47.8534C28.2668 47.9474 27.7249 48.0983 27.2484 48.322L28.0982 50.1325C28.3641 50.0077 28.7161 49.9011 29.1716 49.8284L28.8568 47.8534ZM27.2412 48.3255C26.7504 48.5606 26.3259 48.8906 26.0142 49.3341L27.6506 50.484C27.7328 50.367 27.8689 50.2424 28.1054 50.1291L27.2412 48.3255ZM26.011 49.3387C25.6894 49.8018 25.5483 50.3334 25.5483 50.8864H27.5483C27.5483 50.6818 27.5965 50.5619 27.6538 50.4795L26.011 49.3387ZM25.5483 50.8864C25.5483 51.7314 25.867 52.4898 26.5667 53.0081L27.7572 51.401C27.6387 51.3132 27.5483 51.1929 27.5483 50.8864H25.5483ZM26.5738 53.0133C27.1981 53.4673 27.9442 53.6591 28.7415 53.6591V51.6591C28.266 51.6591 27.9591 51.5478 27.7501 51.3958L26.5738 53.0133ZM40.8551 56H39.8551V57H40.8551V56ZM40.8551 32.7273V31.7273H39.8551V32.7273H40.8551ZM46.4119 32.7273H47.4119V31.7273H46.4119V32.7273ZM46.4119 41.5341H45.4119V42.5341H46.4119V41.5341ZM46.5256 41.5341V42.5341H47.185L47.4447 41.928L46.5256 41.5341ZM47.4915 40L46.7338 39.3473L46.7281 39.3541L47.4915 40ZM49.1051 38.7955L49.5355 39.6981L49.5399 39.696L49.1051 38.7955ZM54.8665 39.2727L54.3493 40.1286L54.352 40.1302L54.8665 39.2727ZM57.4347 42.2159L58.3321 41.7749L58.3321 41.7749L57.4347 42.2159ZM57.4688 52.25L56.5643 51.8235L56.5623 51.8277L57.4688 52.25ZM54.946 55.25L54.4138 54.4034L54.4111 54.4051L54.946 55.25ZM49.1506 55.8182L48.7424 56.7311L48.7424 56.7311L49.1506 55.8182ZM47.5256 54.6818L46.7894 55.3586L46.7953 55.365L47.5256 54.6818ZM46.5256 53.1705L47.442 52.7703L47.1801 52.1705H46.5256V53.1705ZM46.3551 53.1705V52.1705H45.3551V53.1705H46.3551ZM46.3551 56V57H47.3551V56H46.3551ZM46.6733 49.7273L45.732 50.0649L45.7353 50.0739L46.6733 49.7273ZM47.7756 51.3523L47.1464 52.1295L47.1531 52.135L47.1599 52.1403L47.7756 51.3523ZM51.2528 51.3523L51.8745 52.1356L51.882 52.1295L51.2528 51.3523ZM52.3324 49.7273L51.3911 49.3896L51.3879 49.3988L52.3324 49.7273ZM52.3324 44.8295L51.389 45.1613L51.3923 45.1705L52.3324 44.8295ZM51.2528 43.2273L50.6251 44.0057L50.6312 44.0106L51.2528 43.2273ZM47.7756 43.2159L47.1616 42.4266L47.1616 42.4266L47.7756 43.2159ZM46.6733 44.8068L45.7365 44.4568L45.7332 44.4659L46.6733 44.8068ZM41.8551 56V32.7273H39.8551V56H41.8551ZM40.8551 33.7273H46.4119V31.7273H40.8551V33.7273ZM45.4119 32.7273V41.5341H47.4119V32.7273H45.4119ZM46.4119 42.5341H46.5256V40.5341H46.4119V42.5341ZM47.4447 41.928C47.6286 41.499 47.8949 41.0714 48.2549 40.6459L46.7281 39.3541C46.2548 39.9135 45.8771 40.5085 45.6064 41.1402L47.4447 41.928ZM48.2491 40.6527C48.5732 40.2765 48.9953 39.9556 49.5355 39.6981L48.6748 37.8928C47.9119 38.2565 47.2582 38.7387 46.7339 39.3473L48.2491 40.6527ZM49.5399 39.696C50.0336 39.4577 50.6656 39.3182 51.4688 39.3182V37.3182C50.4386 37.3182 49.4948 37.4969 48.6704 37.8949L49.5399 39.696ZM51.4688 39.3182C52.4957 39.3182 53.4498 39.585 54.3493 40.1286L55.3837 38.4169C54.1771 37.6877 52.8661 37.3182 51.4688 37.3182V39.3182ZM54.352 40.1302C55.2178 40.6497 55.9539 41.47 56.5372 42.657L58.3321 41.7749C57.6124 40.3103 56.6364 39.1685 55.381 38.4152L54.352 40.1302ZM56.5372 42.657C57.1002 43.8027 57.4119 45.3279 57.4119 47.2841H59.4119C59.4119 45.1342 59.0721 43.2806 58.3321 41.7749L56.5372 42.657ZM57.4119 47.2841C57.4119 49.1617 57.1125 50.6609 56.5643 51.8235L58.3732 52.6765C59.0825 51.1724 59.4119 49.361 59.4119 47.2841H57.4119ZM56.5623 51.8277C56.008 53.0175 55.2848 53.8559 54.4139 54.4034L55.4782 56.0966C56.7285 55.3107 57.6871 54.1492 58.3752 52.6723L56.5623 51.8277ZM54.4111 54.4051C53.5236 54.9669 52.5398 55.25 51.4347 55.25V57.25C52.9053 57.25 54.2624 56.8664 55.4809 56.0949L54.4111 54.4051ZM51.4347 55.25C50.6629 55.25 50.0468 55.1235 49.5587 54.9053L48.7424 56.7311C49.5423 57.0887 50.4488 57.25 51.4347 57.25V55.25ZM49.5587 54.9053C49.0245 54.6665 48.5958 54.362 48.2558 53.9987L46.7953 55.365C47.3341 55.941 47.9887 56.3941 48.7424 56.7311L49.5587 54.9053ZM48.2617 54.005C47.8984 53.6098 47.6288 53.1981 47.442 52.7703L45.6091 53.5706C45.892 54.2185 46.2891 54.8144 46.7894 55.3586L48.2617 54.005ZM46.5256 52.1705H46.3551V54.1705H46.5256V52.1705ZM45.3551 53.1705V56H47.3551V53.1705H45.3551ZM46.3551 55H40.8551V57H46.3551V55ZM45.2983 47.2727C45.2983 48.2977 45.4343 49.2349 45.732 50.0649L47.6146 49.3896C47.4123 48.8257 47.2983 48.1266 47.2983 47.2727H45.2983ZM45.7353 50.0739C46.0421 50.9041 46.5026 51.6084 47.1464 52.1295L48.4048 50.575C48.094 50.3235 47.8196 49.9444 47.6113 49.3806L45.7353 50.0739ZM47.1599 52.1403C47.8377 52.6698 48.6396 52.9205 49.5142 52.9205V50.9205C49.0404 50.9205 48.6831 50.7923 48.3912 50.5642L47.1599 52.1403ZM49.5142 52.9205C50.3934 52.9205 51.1994 52.6714 51.8745 52.1356L50.6312 50.569C50.3518 50.7907 49.9987 50.9205 49.5142 50.9205V52.9205ZM51.882 52.1295C52.531 51.6041 52.9857 50.893 53.2769 50.0558L51.3879 49.3988C51.1943 49.9555 50.9292 50.3277 50.6236 50.575L51.882 52.1295ZM53.2737 50.0649C53.5714 49.2349 53.7074 48.2977 53.7074 47.2727H51.7074C51.7074 48.1266 51.5934 48.8257 51.3911 49.3896L53.2737 50.0649ZM53.7074 47.2727C53.7074 46.2482 53.5715 45.3132 53.2725 44.4886L51.3923 45.1705C51.5933 45.7247 51.7074 46.4185 51.7074 47.2727H53.7074ZM53.2758 44.4978C52.9834 43.6664 52.5266 42.9615 51.8745 42.444L50.6312 44.0106C50.9337 44.2506 51.1965 44.6139 51.389 45.1613L53.2758 44.4978ZM51.8806 42.4489C51.2081 41.9065 50.3977 41.6591 49.5142 41.6591V43.6591C50.0095 43.6591 50.3582 43.7904 50.6251 44.0057L51.8806 42.4489ZM49.5142 41.6591C48.6399 41.6591 47.8366 41.9015 47.1616 42.4266L48.3895 44.0053C48.669 43.7879 49.0249 43.6591 49.5142 43.6591V41.6591ZM47.1616 42.4266C46.5093 42.9339 46.0448 43.6317 45.7365 44.4568L47.61 45.1568C47.8169 44.6032 48.0873 44.2403 48.3895 44.0053L47.1616 42.4266ZM45.7332 44.4659C45.4336 45.292 45.2983 46.2351 45.2983 47.2727H47.2983C47.2983 46.4012 47.413 45.7005 47.6134 45.1477L45.7332 44.4659ZM61.3239 56H60.3239V57H61.3239V56ZM61.3239 38.5455V37.5455H60.3239V38.5455H61.3239ZM66.8807 38.5455H67.8807V37.5455H66.8807V38.5455ZM66.8807 56V57H67.8807V56H66.8807ZM62.0966 35.7386L61.4146 36.47L61.42 36.475L62.0966 35.7386ZM62.0966 31.9886L62.7732 32.725L62.7786 32.72L62.0966 31.9886ZM66.1193 31.9886L65.4323 32.7154L65.4427 32.725L66.1193 31.9886ZM66.1193 35.7386L66.8009 36.4704L66.8013 36.47L66.1193 35.7386ZM62.3239 56V38.5455H60.3239V56H62.3239ZM61.3239 39.5455H66.8807V37.5455H61.3239V39.5455ZM65.8807 38.5455V56H67.8807V38.5455H65.8807ZM66.8807 55H61.3239V57H66.8807V55ZM64.108 35.5114C63.5714 35.5114 63.1443 35.3433 62.7732 35.0023L61.42 36.475C62.1701 37.1643 63.0839 37.5114 64.108 37.5114V35.5114ZM62.7786 35.0073C62.4109 34.6645 62.2557 34.2966 62.2557 33.8523H60.2557C60.2557 34.8777 60.661 35.7673 61.4146 36.47L62.7786 35.0073ZM62.2557 33.8523C62.2557 33.4194 62.4078 33.0608 62.7732 32.725L61.42 31.2523C60.6642 31.9468 60.2557 32.8306 60.2557 33.8523H62.2557ZM62.7786 32.72C63.1504 32.3733 63.5757 32.2045 64.108 32.2045V30.2045C63.0796 30.2045 62.164 30.5585 61.4146 31.2573L62.7786 32.72ZM64.108 32.2045C64.6504 32.2045 65.0722 32.3749 65.4324 32.7154L66.8062 31.2619C66.0604 30.5569 65.1413 30.2045 64.108 30.2045V32.2045ZM65.4427 32.725C65.8081 33.0608 65.9602 33.4194 65.9602 33.8523H67.9602C67.9602 32.8306 67.5517 31.9468 66.7959 31.2523L65.4427 32.725ZM65.9602 33.8523C65.9602 34.2966 65.805 34.6645 65.4374 35.0073L66.8013 36.47C67.5549 35.7673 67.9602 34.8777 67.9602 33.8523H65.9602ZM65.4377 35.0069C65.0783 35.3417 64.6547 35.5114 64.108 35.5114V37.5114C65.1369 37.5114 66.0543 37.1658 66.8009 36.4704L65.4377 35.0069ZM80.2699 38.5455H81.2699V37.5455H80.2699V38.5455ZM80.2699 42.6364V43.6364H81.2699V42.6364H80.2699ZM69.2585 42.6364H68.2585V43.6364H69.2585V42.6364ZM69.2585 38.5455V37.5455H68.2585V38.5455H69.2585ZM71.5653 34.3636V33.3636H70.5653V34.3636H71.5653ZM77.1222 34.3636H78.1222V33.3636H77.1222V34.3636ZM77.2812 51.3409L76.3868 51.7881L76.3965 51.8076L76.4071 51.8266L77.2812 51.3409ZM77.7699 51.7841L77.376 52.7032L77.39 52.7093L77.4042 52.7148L77.7699 51.7841ZM79.2017 51.8523L79.3609 52.8395L79.3735 52.8375L79.386 52.8351L79.2017 51.8523ZM79.7472 51.7386L80.7259 51.5335L80.5127 50.5165L79.5046 50.7685L79.7472 51.7386ZM80.5881 55.75L80.8628 56.7115L81.7578 56.4558L81.5668 55.5448L80.5881 55.75ZM79.4631 56.0341L79.2349 55.0605L79.2314 55.0613L79.4631 56.0341ZM77.7472 56.25L77.7018 55.251L77.7007 55.2511L77.7472 56.25ZM74.3949 55.7955L74.0222 56.7235L74.0313 56.727L74.3949 55.7955ZM72.2699 54.0682L71.4205 54.596L71.4242 54.6019L72.2699 54.0682ZM71.5653 51.125L72.5653 51.1378V51.125H71.5653ZM79.2699 38.5455V42.6364H81.2699V38.5455H79.2699ZM80.2699 41.6364H69.2585V43.6364H80.2699V41.6364ZM70.2585 42.6364V38.5455H68.2585V42.6364H70.2585ZM69.2585 39.5455H80.2699V37.5455H69.2585V39.5455ZM71.5653 35.3636H77.1222V33.3636H71.5653V35.3636ZM76.1222 34.3636V50.5114H78.1222V34.3636H76.1222ZM76.1222 50.5114C76.1222 50.9443 76.1877 51.3899 76.3868 51.7881L78.1757 50.8937C78.1627 50.8676 78.1222 50.7602 78.1222 50.5114H76.1222ZM76.4071 51.8266C76.6267 52.2219 76.9571 52.5237 77.376 52.7032L78.1638 50.8649C78.1585 50.8627 78.1565 50.8614 78.1569 50.8616C78.1573 50.8619 78.1587 50.8628 78.1605 50.8644C78.1622 50.8659 78.1628 50.8668 78.1623 50.8662C78.1618 50.8656 78.1593 50.8623 78.1554 50.8553L76.4071 51.8266ZM77.4042 52.7148C77.7617 52.8553 78.146 52.9091 78.5312 52.9091V50.9091C78.3256 50.9091 78.2023 50.8796 78.1355 50.8533L77.4042 52.7148ZM78.5312 52.9091C78.8027 52.9091 79.0797 52.8849 79.3609 52.8395L79.0425 50.865C78.854 50.8954 78.6841 50.9091 78.5312 50.9091V52.9091ZM79.386 52.8351C79.6331 52.7888 79.8386 52.7465 79.9897 52.7088L79.5046 50.7685C79.4133 50.7913 79.2552 50.8248 79.0174 50.8694L79.386 52.8351ZM78.7684 51.9438L79.6093 55.9552L81.5668 55.5448L80.7259 51.5335L78.7684 51.9438ZM80.3133 54.7885C80.0712 54.8577 79.7144 54.9481 79.2349 55.0605L79.6913 57.0077C80.1815 56.8928 80.5746 56.7939 80.8628 56.7115L80.3133 54.7885ZM79.2314 55.0613C78.8326 55.1562 78.3264 55.2226 77.7018 55.251L77.7926 57.249C78.5012 57.2168 79.139 57.1392 79.6947 57.0069L79.2314 55.0613ZM77.7007 55.2511C76.4969 55.3071 75.5266 55.1636 74.7584 54.8639L74.0313 56.727C75.1268 57.1545 76.3914 57.3141 77.7936 57.2489L77.7007 55.2511ZM74.7676 54.8675C74.0222 54.5681 73.4867 54.1225 73.1156 53.5345L71.4242 54.6019C72.038 55.5744 72.9191 56.2804 74.0222 56.7234L74.7676 54.8675ZM73.1193 53.5404C72.7603 52.9627 72.5519 52.1828 72.5653 51.1378L70.5654 51.1122C70.5485 52.4308 70.8097 53.613 71.4205 54.596L73.1193 53.5404ZM72.5653 51.125V34.3636H70.5653V51.125H72.5653ZM98.125 43.875L98.1517 44.8746L99.2094 44.8464L99.1215 43.792L98.125 43.875ZM93.0227 44.0114L92.0332 44.1557L92.1614 45.0347L93.0494 45.011L93.0227 44.0114ZM92.5909 43.0455L91.816 43.6776L91.8244 43.6877L92.5909 43.0455ZM91.6705 42.375L91.2609 43.2873L91.272 43.2923L91.2832 43.297L91.6705 42.375ZM88.7273 42.5114L88.2342 41.6413L88.228 41.6449L88.7273 42.5114ZM88.0682 43.5568L89.0679 43.579L89.0684 43.5593L89.068 43.5396L88.0682 43.5568ZM88.4773 44.4432L87.8116 45.1895L87.8216 45.1982L88.4773 44.4432ZM90.0114 45.0455L89.8094 46.0249L89.8174 46.0265L89.8255 46.028L90.0114 45.0455ZM93.375 45.6818L93.5629 44.6996L93.5609 44.6992L93.375 45.6818ZM97.2614 47.3409L96.588 48.0803L96.5913 48.0832L97.2614 47.3409ZM98.5568 50.4091L99.5569 50.4154L99.5568 50.4031L98.5568 50.4091ZM97.4886 53.5341L96.7058 52.9118L96.7026 52.916L97.4886 53.5341ZM94.625 55.6023L94.9964 56.5308L95.0014 56.5287L94.625 55.6023ZM84.5682 54.7955L83.9841 55.6072L83.989 55.6106L84.5682 54.7955ZM82.1136 50.6591L82.0888 49.6594L80.9915 49.6867L81.1206 50.7767L82.1136 50.6591ZM87.6023 50.5227L88.5846 50.3356L88.4258 49.502L87.5774 49.523L87.6023 50.5227ZM88.5455 51.9773L89.0944 51.1414L89.0944 51.1414L88.5455 51.9773ZM92.2273 52.0795L91.7171 51.2195L91.7171 51.2195L92.2273 52.0795ZM92.9091 51.0227L93.9089 51.04L93.9093 51.0217L93.9089 51.0035L92.9091 51.0227ZM92.3864 50.0795L91.8068 50.8945L91.8129 50.8988L91.8191 50.9031L92.3864 50.0795ZM90.7841 49.5114L90.5971 50.4937L90.5998 50.4942L90.7841 49.5114ZM87.7386 48.9318L87.9256 47.9494L87.9175 47.9479L87.7386 48.9318ZM83.8295 47.1705L83.1193 47.8744L83.1224 47.8776L83.8295 47.1705ZM82.5568 43.875L83.5569 43.8807L83.5568 43.8685L82.5568 43.875ZM83.4886 40.8864L84.2842 41.4922L84.2869 41.4887L83.4886 40.8864ZM86.1705 38.9773L85.816 38.0422L85.816 38.0422L86.1705 38.9773ZM95.8636 39.8068L95.2752 40.6154L95.2781 40.6175L95.8636 39.8068ZM98.0983 42.8754L92.996 43.0117L93.0494 45.011L98.1517 44.8746L98.0983 42.8754ZM94.0123 43.8671C93.9326 43.3209 93.7119 42.8264 93.3574 42.4032L91.8244 43.6877C91.9396 43.8251 92.0068 43.9745 92.0332 44.1557L94.0123 43.8671ZM93.3658 42.4133C93.0168 41.9855 92.5712 41.6687 92.0577 41.453L91.2832 43.297C91.5273 43.3995 91.6953 43.5296 91.816 43.6776L93.3658 42.4133ZM92.08 41.4627C91.5559 41.2274 90.9795 41.125 90.375 41.125V43.125C90.7553 43.125 91.0426 43.1893 91.2609 43.2873L92.08 41.4627ZM90.375 41.125C89.5981 41.125 88.8704 41.2809 88.2343 41.6413L89.2203 43.3814C89.4933 43.2267 89.864 43.125 90.375 43.125V41.125ZM88.228 41.6449C87.5315 42.0463 87.0533 42.701 87.0683 43.5741L89.068 43.5396C89.0676 43.5161 89.0703 43.5057 89.0707 43.5043C89.071 43.5033 89.0711 43.5026 89.0732 43.4992C89.0771 43.493 89.1092 43.4455 89.2266 43.3778L88.228 41.6449ZM87.0684 43.5346C87.0536 44.2002 87.3378 44.7669 87.8117 45.1895L89.1429 43.6969C89.0894 43.6492 89.0752 43.6205 89.0727 43.615C89.0711 43.6115 89.0703 43.6089 89.0696 43.6056C89.0689 43.6022 89.0676 43.594 89.0679 43.579L87.0684 43.5346ZM87.8216 45.1982C88.313 45.625 89.04 45.8662 89.8094 46.0249L90.2133 44.0661C89.513 43.9217 89.2173 43.7614 89.133 43.6881L87.8216 45.1982ZM89.8255 46.028L93.1891 46.6644L93.5609 44.6992L90.1973 44.0629L89.8255 46.028ZM93.1871 46.664C94.8393 46.9801 95.9311 47.4819 96.588 48.0803L97.9347 46.6016C96.8947 45.6544 95.3955 45.0502 93.5629 44.6996L93.1871 46.664ZM96.5913 48.0832C97.2159 48.647 97.5507 49.3908 97.5568 50.415L99.5568 50.4031C99.5477 48.8819 99.0189 47.5802 97.9314 46.5986L96.5913 48.0832ZM97.5568 50.4028C97.5506 51.3896 97.2628 52.2112 96.7058 52.9118L98.2715 54.1563C99.1236 53.0843 99.5479 51.8225 99.5568 50.4154L97.5568 50.4028ZM96.7026 52.916C96.1292 53.6451 95.3258 54.2382 94.2486 54.6758L95.0014 56.5287C96.3485 55.9815 97.4541 55.1958 98.2747 54.1522L96.7026 52.916ZM94.2536 54.6738C93.1803 55.1031 91.9236 55.3295 90.4659 55.3295V57.3295C92.1294 57.3295 93.6455 57.0711 94.9964 56.5307L94.2536 54.6738ZM90.4659 55.3295C88.0985 55.3295 86.3608 54.8425 85.1474 53.9803L83.989 55.6106C85.6543 56.7939 87.8485 57.3295 90.4659 57.3295V55.3295ZM85.1523 53.9838C83.9444 53.1146 83.2777 51.9858 83.1067 50.5415L81.1206 50.7767C81.3586 52.7869 82.3283 54.4157 83.9841 55.6072L85.1523 53.9838ZM82.1385 51.6588L87.6271 51.5224L87.5774 49.523L82.0888 49.6594L82.1385 51.6588ZM86.6199 50.7098C86.788 51.5924 87.2463 52.3205 87.9965 52.8131L89.0944 51.1414C88.8295 50.9674 88.6589 50.7258 88.5846 50.3356L86.6199 50.7098ZM87.9965 52.8131C88.7092 53.2812 89.563 53.4773 90.4886 53.4773V51.4773C89.8385 51.4773 89.3968 51.34 89.0944 51.1414L87.9965 52.8131ZM90.4886 53.4773C91.3165 53.4773 92.0892 53.3242 92.7375 52.9396L91.7171 51.2195C91.4715 51.3652 91.085 51.4773 90.4886 51.4773V53.4773ZM92.7375 52.9396C93.419 52.5353 93.8942 51.8944 93.9089 51.04L91.9092 51.0055C91.9085 51.0482 91.9002 51.0626 91.8927 51.0744C91.8807 51.0929 91.8387 51.1474 91.7171 51.2195L92.7375 52.9396ZM93.9089 51.0035C93.8948 50.2687 93.5441 49.6627 92.9537 49.256L91.8191 50.9031C91.8816 50.9461 91.8965 50.9733 91.8981 50.9762C91.8987 50.9774 91.9083 50.992 91.9093 51.042L93.9089 51.0035ZM92.9659 49.2646C92.4486 48.8967 91.7449 48.6741 90.9684 48.5285L90.5998 50.4942C91.2778 50.6214 91.6423 50.7775 91.8068 50.8945L92.9659 49.2646ZM90.971 48.529L87.9256 47.9494L87.5517 49.9142L90.5971 50.4937L90.971 48.529ZM87.9175 47.9479C86.2785 47.6499 85.1959 47.1226 84.5367 46.4633L83.1224 47.8776C84.1753 48.9304 85.6988 49.5773 87.5598 49.9157L87.9175 47.9479ZM84.5398 46.4665C83.8897 45.8106 83.5506 44.9766 83.5568 43.8807L81.5568 43.8693C81.5479 45.4401 82.0573 46.803 83.1193 47.8744L84.5398 46.4665ZM83.5568 43.8685C83.5505 42.8941 83.8059 42.1204 84.2842 41.4922L82.693 40.2805C81.9138 41.3039 81.548 42.5226 81.5568 43.8815L83.5568 43.8685ZM84.2869 41.4887C84.7823 40.8321 85.5087 40.2976 86.5249 39.9123L85.816 38.0422C84.514 38.5358 83.4525 39.274 82.6904 40.284L84.2869 41.4887ZM86.5249 39.9123C87.5447 39.5258 88.7867 39.3182 90.2727 39.3182V37.3182C88.6073 37.3182 87.1144 37.55 85.816 38.0422L86.5249 39.9123ZM90.2727 39.3182C92.5074 39.3182 94.139 39.7884 95.2752 40.6154L96.4521 38.9983C94.861 37.8404 92.7653 37.3182 90.2727 37.3182V39.3182ZM95.2781 40.6175C96.397 41.4255 97.0079 42.5115 97.1285 43.958L99.1215 43.792C98.9542 41.7839 98.0576 40.1578 96.4491 38.9961L95.2781 40.6175Z" fill="black"/>
<rect x="0.5" y="0.5" width="15" height="15" rx="3.5" fill="#18181B" stroke="#27272A"/>
<rect x="20.5" y="0.5" width="15" height="15" rx="3.5" fill="#4C1D95" stroke="#6D28D9"/>
<rect x="40.5" y="0.5" width="15" height="15" rx="3.5" fill="#5B21B6" stroke="#7C3AED"/>
<rect x="60.5" y="0.5" width="15" height="15" rx="3.5" fill="#6D28D9" stroke="#8B5CF6"/>
<rect x="80.5" y="0.5" width="15" height="15" rx="3.5" fill="#7C3AED" stroke="#A78BFA"/>
<rect x="100.5" y="0.5" width="15" height="15" rx="3.5" fill="#8B5CF6" stroke="#C4B5FD"/>
<rect x="0.5" y="0.5" width="115" height="15" stroke="black"/>
</svg>
